<svg xmlns="http://www.w3.org/2000/svg" version="1.1" xmlns:xlink="http://www.w3.org/1999/xlink" xmlns:svgjs="http://svgjs.dev/svgjs" width="100%" height="100%" viewBox="0 0 1000 600"><rect width="1000" height="600" x="0" y="0" fill="#141a46"/><g><circle r="166.66666666666666" cx="359.18863932291663" cy="381.4108856570199" fill="#ec8b5e" transform="matrix(0.6492764013179128,0,0,0.6492764013179129,0,52.35891040414889)"/><path d="M365.93816064464227 456.4108135319512L365.93816064464227 456.4108135319512Q339.0973813965305 456.4108135319512 325.66125860761645 441.33844159778295Q312.2251358187023 426.2660696636146 312.2251358187023 398.51276685372653L312.2251358187023 398.51276685372653L312.2251358187023 364.1830011331053Q312.2251358187023 336.4296983232171 325.5983259481836 321.4202590484817Q338.9715160776648 306.4108197737463 365.7178963366273 306.4108197737463L365.7178963366273 306.4108197737463Q374.3082043492117 306.4108197737463 381.38812853540765 308.0156025892841Q388.4680527216036 309.58891907510537 394.03759308141105 312.07475912270303Q399.5756671115021 314.5920655000172 403.41455933690617 317.29816985562985L403.41455933690617 317.29816985562985L405.01934215244387 334.7305165185301Q398.3170139228451 329.97910073134966 389.3176436239471 326.42340547339353Q380.3182733250492 322.8362438857209 368.20373638422495 322.8362438857209L368.20373638422495 322.8362438857209Q349.9532651486976 322.8362438857209 340.6706978823518 333.66066130817165Q331.38813061600604 344.4850787306223 331.38813061600604 364.43473177083666L331.38813061600604 364.43473177083666L331.38813061600604 397.8519739296816Q331.38813061600604 417.6757616510302 340.7965632012175 428.5945780626302Q350.17352945671263 439.5133944742302 368.8645293082699 439.5133944742302L368.8645293082699 439.5133944742302Q380.8846672599448 439.5133944742302 390.1043018668578 436.0206318757068Q399.35540280348715 432.49640294746706 406.15213002223527 427.398857533406L406.15213002223527 427.398857533406L404.5473472066975 445.3031991420526Q400.70845498129347 448.00930349766526 395.0445156323367 450.62100886412867Q389.38057628338 453.2327142305921 382.08038778916904 454.80603071641343Q374.7801992949581 456.4108135319512 365.93816064464227 456.4108135319512Z " fill="#141a46" transform="matrix(0.6492764013179128,0,0,0.6492764013179129,0,52.35891040414889)"/><path d="M651.8068074535402 427.5742624260484L651.8068074535402 427.5742624260484Q630.5102035752986 427.5742624260484 619.8494182810323 415.615208196649Q609.188632986766 403.6561539672496 609.188632986766 381.63551549056837L609.188632986766 381.63551549056837L609.188632986766 354.3968345630636Q609.188632986766 332.37619608638244 619.7994848604503 320.467075277565Q630.4103367341345 308.55795446874765 651.632040481503 308.55795446874765L651.632040481503 308.55795446874765Q658.447952390952 308.55795446874765 664.0654622064319 309.83125669358975Q669.6829720219118 311.07959220814087 674.1020797434226 313.0519623211316Q678.4962207546425 315.0492991444133 681.5421594101472 317.1964362294412L681.5421594101472 317.1964362294412L682.8154616349892 331.0279937306672Q677.4975523430016 327.25802047672295 670.3570731997694 324.4367822138375Q663.2165940565371 321.59057724066105 653.6044105944937 321.59057724066105L653.6044105944937 321.59057724066105Q639.1237186257011 321.59057724066105 631.7585390898497 330.17912558077245Q624.3933595539984 338.76767392088396 624.3933595539984 354.5965682453918L624.3933595539984 354.5965682453918L624.3933595539984 381.11121457445694Q624.3933595539984 396.8402420578006 631.8584059310137 405.50369052878517Q639.2984855977384 414.16713899976975 654.1287115106052 414.16713899976975L654.1287115106052 414.16713899976975Q663.6659948417755 414.16713899976975 670.981240957045 411.39583415746637Q678.3214537826053 408.5995626048719 683.7142632054661 404.55495553772636L683.7142632054661 404.55495553772636L682.4409609806239 418.7610136933178Q679.3950223251193 420.9081507783456 674.9010144727354 422.98038773250045Q670.4070066203515 425.0526246866553 664.6147298328344 426.30096020120635Q658.8224530453174 427.5742624260484 651.8068074535402 427.5742624260484ZM716.5954206587417 371.84856505648787L716.5954206587417 371.84856505648787L713.2748481900358 360.6135454255281L716.8700544719429 360.4387784534909Q719.7412261554105 349.2786589534042 726.7568717471876 342.8622144086116Q733.7725173389647 336.42080315352797 745.3570709139988 336.42080315352797L745.3570709139988 336.42080315352797Q748.2532093077573 336.42080315352797 750.5251799442403 336.87020393876634Q752.8221172910144 337.3196047240047 754.6197204319678 337.9687391915713L754.6197204319678 337.9687391915713L755.5185220024447 352.07493050599857Q753.2715180762527 351.35089590755894 750.5251799442403 350.90149512232057Q747.8038085225189 350.4520943370822 744.458269343522 350.4520943370822L744.458269343522 350.4520943370822Q734.5714520682774 350.4520943370822 727.256205953008 355.944770601107Q719.9409598377387 361.4124801548407 716.5954206587417 371.84856505648787ZM717.3194552571813 425.50202547189366L702.7638631575156 425.50202547189366L702.7638631575156 337.7690055092432L716.9699213131071 337.7690055092432L716.2458867146674 363.65948408103276L717.3194552571813 364.7330526235466L717.3194552571813 425.50202547189366ZM802.7056044524758 411.9201350735778L811.0694523999681 411.9201350735778L803.4296390509154 415.2656742525747L829.6696515667793 337.7690055092432L844.6746444516834 337.7690055092432L803.4296390509154 456.41081281217856L788.6992799792126 456.41081281217856L802.5308374804387 416.33924279508864L808.9223153149402 421.9068191899865L792.3693863919927 421.9068191899865L763.7076029778998 337.7690055092432L778.812462703968 337.7690055092432L802.7056044524758 411.9201350735778ZM894.0338306970334 427.29962861284724L894.0338306970334 427.29962861284724Q883.8723796085876 427.29962861284724 877.6806354564142 424.2536899573426Q871.4639245939497 421.18278459154686 868.6926197516464 414.9910404393734Q865.8963481990519 408.774329576909 865.8963481990519 399.536646769231L865.8963481990519 399.536646769231L865.8963481990519 344.1604833437447L880.2771733266804 344.1604833437447L880.2771733266804 397.8139437591505Q880.2771733266804 406.452425519844 884.2219135526618 410.5469660075716Q888.1916204889343 414.6165397850081 897.5291701377764 414.6165397850081L897.5291701377764 414.6165397850081Q902.8470794297641 414.6165397850081 907.7405546468044 413.4680711116211Q912.6340298638447 412.2946357279431 916.9532707441914 410.1225319326242L916.9532707441914 410.1225319326242L915.6050683884762 422.6308537884261Q911.3856943492935 424.77799087345403 905.7182511132316 426.05129309829607Q900.0508078771696 427.29962861284724 894.0338306970334 427.29962861284724ZM914.7062668179994 350.72672815028346L851.5155230714233 350.72672815028346L851.5155230714233 339.0423077340852L916.0544691737147 339.0423077340852L914.7062668179994 350.72672815028346ZM879.9276393826061 340.4654102206735L865.9962150402159 340.4654102206735L865.8963481990519 315.848233873726L880.5518071398817 313.95076389160835L879.9276393826061 340.4654102206735ZM981.1177161921173 384.3319202019987L930.0607936469778 384.3319202019987L930.0607936469778 372.3728659725993L981.1177161921173 372.3728659725993L981.1177161921173 384.3319202019987ZM1040.8880206288236 427.47439558488435L1040.8880206288236 427.47439558488435Q1020.839752265133 427.47439558488435 1010.7032678869782 417.68744515080385Q1000.5418167985324 407.87552800643226 1000.5418167985324 389.6498294939864L1000.5418167985324 389.6498294939864L1000.5418167985324 373.9957021415158Q1000.5418167985324 355.4953698158686 1009.9792332885386 345.45875227887785Q1019.4166497785448 335.44710145217806 1037.5674481601177 335.44710145217806L1037.5674481601177 335.44710145217806Q1049.8011362027182 335.44710145217806 1057.9652504678825 339.99104272514404Q1066.1543314433375 344.51001728781904 1070.2738386413562 352.87386523531126Q1074.4183125496656 361.2377131828036 1074.4183125496656 372.82226675783767L1074.4183125496656 372.82226675783767L1074.4183125496656 376.0679390956705Q1074.4183125496656 378.93911077913805 1074.1936121570466 381.8102824626056Q1073.9689117644275 384.7064208563641 1073.619377820353 387.4777256986675L1073.619377820353 387.4777256986675L1060.2122543940743 387.4777256986675Q1060.3870213661116 383.1584848183207 1060.4369547866936 379.31361143350335Q1060.4868882072756 375.44377133839504 1060.4868882072756 372.1980990005622L1060.4868882072756 372.1980990005622Q1060.4868882072756 364.20875170743517 1057.9153170473003 358.6661420228284Q1055.3687125976162 353.1484990485125 1050.2755036982476 350.227393944463Q1045.2072615091702 347.3062888404134 1037.5674481601177 347.3062888404134L1037.5674481601177 347.3062888404134Q1026.2325616879937 347.3062888404134 1020.5900851622227 353.87253364695215Q1014.9226419261608 360.4387784534909 1014.9226419261608 372.64749978580056L1014.9226419261608 372.64749978580056L1014.9226419261608 381.0113477332929L1014.9975420570338 382.80895087424636L1014.9975420570338 391.1727988217387Q1014.9975420570338 396.6405083754725 1016.6203782259504 401.05961609698335Q1018.2432143948668 405.4537571082032 1021.7135871253188 408.64949602545397Q1025.1589931454796 411.84523494270474 1030.5018691477585 413.4930378219122Q1035.8697118603282 415.16580741141064 1043.2348913961796 415.16580741141064L1043.2348913961796 415.16580741141064Q1051.7735063157088 415.16580741141064 1059.1386858515605 412.9188034852187Q1066.503865387412 410.67179955902674 1072.9702433527864 406.8019594639183L1072.9702433527864 406.8019594639183L1071.6220409970713 419.3851814505933Q1065.779830788972 423.0802545736645 1058.0651173090464 425.2773250792745Q1050.3254371188298 427.47439558488435 1040.8880206288236 427.47439558488435ZM1070.5484724545574 387.4777256986675L1008.181630147585 387.4777256986675L1008.181630147585 376.5173398809089L1070.5484724545574 376.5173398809089L1070.5484724545574 387.4777256986675ZM1167.0947411499385 425.50202547189366L1152.5141823399817 425.50202547189366L1152.5141823399817 370.949763486011Q1152.5141823399817 363.83425105306986 1150.5917456475731 358.7160754434104Q1148.6693089551645 353.5978998337509 1144.3001346542355 350.77666157086543Q1139.9309603533068 347.930456597689 1132.3910138454182 347.930456597689L1132.3910138454182 347.930456597689Q1125.4752350948052 347.930456597689 1120.382026195437 350.55196117824624Q1115.3137840063594 353.1484990485125 1112.1679785096906 357.59257348031446Q1109.022173013022 362.0366479121163 1107.7738374984708 367.7040911481783L1107.7738374984708 367.7040911481783L1105.1523329179136 357.3678730876953L1108.2981384145824 357.3678730876953Q1109.7462076114614 351.4507627487231 1113.3414138933686 346.5323208213918Q1116.9366201752757 341.6388456043515 1123.003530775994 338.717740500302Q1129.0704413767126 335.7966353962524 1137.883690109443 335.7966353962524L1137.883690109443 335.7966353962524Q1148.294808300799 335.7966353962524 1154.7362195558826 339.76634233252486Q1161.1526641006753 343.71108255850635 1164.123702625307 351.12619551493975Q1167.0947411499385 358.54130847137327 1167.0947411499385 369.32692731709466L1167.0947411499385 369.32692731709466L1167.0947411499385 425.50202547189366ZM1108.3980052557463 425.50202547189366L1093.8424131560807 425.50202547189366L1093.8424131560807 337.7690055092432L1108.3980052557463 337.7690055092432L1107.7738374984708 358.81594228457453L1108.3980052557463 359.6148770138872L1108.3980052557463 425.50202547189366ZM1218.5760977700254 427.3994954540113L1218.5760977700254 427.3994954540113Q1202.7721701558087 427.3994954540113 1194.5081890494803 417.5875783096397Q1186.2192412328613 407.8006278755592 1186.2192412328613 389.0006950264198L1186.2192412328613 389.0006950264198L1186.2192412328613 374.5449697679182Q1186.2192412328613 355.67013678790573 1194.5830891803535 345.7333860920791Q1202.9469371278458 335.7966353962524 1219.2252322375919 335.7966353962524L1219.2252322375919 335.7966353962524Q1227.314446371883 335.7966353962524 1233.231556710855 338.5429735282648Q1239.1736337601185 341.2893116602772 1242.8437401728986 346.23272029789956Q1246.53881329597 351.17612893552183 1247.7871488105209 357.9171407140977L1247.7871488105209 357.9171407140977L1252.555790476106 357.9171407140977L1248.2365495957592 371.29929743008535Q1247.9868824928492 363.5845839501597 1244.7911435755984 358.3166080787541Q1241.5954046583477 353.0486322073485 1236.1526618149048 350.35222749591816Q1230.709918971462 347.6558227844877 1223.719240089976 347.6558227844877L1223.719240089976 347.6558227844877Q1212.559120589889 347.6558227844877 1206.666976961208 354.1471674601534Q1200.7998000428179 360.6135454255281 1200.7998000428179 373.196767412203L1200.7998000428179 373.196767412203L1200.7998000428179 389.89949659689654Q1200.7998000428179 402.3079516115344 1206.666976961208 408.774329576909Q1212.559120589889 415.2656742525747 1223.719240089976 415.2656742525747L1223.719240089976 415.2656742525747Q1230.3603850273878 415.2656742525747 1235.4785606370472 412.6941030925995Q1240.5967362467065 410.1225319326242 1243.9672421359946 405.6035573699493Q1247.3377480252825 401.05961609698335 1248.6110502501247 395.2923060197573L1248.6110502501247 395.2923060197573L1252.2062565320318 405.72839092140435L1247.887015651685 405.72839092140435Q1246.6386801371339 411.67046797066763 1243.0684405655177 416.6138766082899Q1239.5231677041927 421.55728524591217 1233.5561239446386 424.4783903499618Q1227.5641134747932 427.3994954540113 1218.5760977700254 427.3994954540113ZM1262.4426077513506 425.50202547189366L1247.887015651685 425.50202547189366L1248.5111834089605 404.2803217245251L1248.2365495957592 399.6115469001041L1248.2365495957592 362.9354494825931L1248.3364164369234 359.8895108270884L1247.9868824928492 334.9977006669397L1247.9868824928492 306.41081738371975L1262.4426077513506 306.41081738371975L1262.4426077513506 425.50202547189366ZM1313.5993971376543 427.47439558488435L1313.5993971376543 427.47439558488435Q1302.98854526397 427.47439558488435 1295.0740981017161 425.1774582381103Q1287.1596509394624 422.9054876016274 1281.9416084886386 420.20908289019707L1281.9416084886386 420.20908289019707L1280.5934061329235 406.72705933304525Q1287.1596509394624 410.1225319326242 1295.024164681134 412.6441696720174Q1302.888678422806 415.16580741141064 1312.8753625392146 415.16580741141064L1312.8753625392146 415.16580741141064Q1323.0368136276604 415.16580741141064 1328.1549892373198 411.9201350735778Q1333.2731648469794 408.69942944603594 1333.2731648469794 402.3079516115344L1333.2731648469794 402.3079516115344L1333.2731648469794 401.3342499101846Q1333.2731648469794 397.1897760018749 1331.3507281545708 394.4933712904446Q1329.4033247518712 391.7969665790143 1324.3850159833758 389.72472962485944Q1319.3417405045893 387.6524926707047 1310.0790909866203 385.60522242684084L1310.0790909866203 385.60522242684084Q1299.0188383276975 383.1584848183207 1292.6523272034872 379.88784577019686Q1286.2608493689854 376.61720672207304 1283.514511236973 371.7486982153237Q1280.7931398152516 366.9051564188655 1280.7931398152516 359.8895108270884L1280.7931398152516 359.8895108270884L1280.7931398152516 359.0905760977757Q1280.7931398152516 347.58092265361466 1288.7824871083787 341.6388456043515Q1296.7718344015054 335.7217352653793 1312.8753625392146 335.7217352653793L1312.8753625392146 335.7217352653793Q1323.2115805996978 335.7217352653793 1330.8014605281683 338.04363932244433Q1338.391340456639 340.39051008980044 1343.259848963388 343.261681773268L1343.259848963388 343.261681773268L1344.6080513191034 355.5702699467417Q1338.7658411110042 352.1498306368716 1331.2009278928247 349.9028267106797Q1323.6609813849361 347.6558227844877 1314.2235648949297 347.6558227844877L1314.2235648949297 347.6558227844877Q1307.3826862751898 347.6558227844877 1303.1633122360072 349.053958560785Q1298.9439381968245 350.4520943370822 1297.046468214707 353.0236654970575Q1295.1739649428803 355.5702699467417 1295.1739649428803 359.16547622864874L1295.1739649428803 359.16547622864874L1295.1739649428803 359.8895108270884Q1295.1739649428803 363.83425105306986 1297.046468214707 366.58058918508226Q1298.9439381968245 369.32692731709466 1303.8374134138649 371.3492308506674Q1308.730888630905 373.3715343842402 1317.4442705224717 375.2690043663578L1317.4442705224717 375.2690043663578Q1328.6792901534316 377.51600829254977 1335.2954683805522 380.66181378921857Q1341.911646607673 383.80761928588726 1344.7828182911405 388.6012276617634Q1347.6539899746078 393.41980274793065 1347.6539899746078 400.9597492558192L1347.6539899746078 400.9597492558192L1347.6539899746078 402.4827185835715Q1347.6539899746078 414.8911735982094 1339.0155082139145 421.18278459154686Q1330.4019931635119 427.47439558488435 1313.5993971376543 427.47439558488435Z " fill="#ec8b5e" transform="matrix(0.6492764013179128,0,0,0.6492764013179129,0,52.35891040414889)"/></g></svg>